<?xml version="1.0" standalone="no"?>
<!DOCTYPE svg PUBLIC "-//W3C//DTD SVG 1.1//EN" "http://www.w3.org/Graphics/SVG/1.1/DTD/svg11.dtd">
<svg version="1.1" xmlns="http://www.w3.org/2000/svg" viewBox="0 0 58 58" width="58" height="58"><!-- svg-source:excalidraw --><metadata></metadata><defs><style class="style-fonts">
      </style></defs><g stroke-linecap="round" transform="translate(10 10) rotate(0 19 19)"><path d="M23.69 0.31 C27.37 0.97, 31.33 4.47, 33.73 7.79 C36.13 11.12, 38.26 16.24, 38.07 20.27 C37.88 24.29, 35.33 29.04, 32.58 31.96 C29.84 34.87, 25.67 37.3, 21.6 37.76 C17.53 38.22, 11.7 36.9, 8.17 34.73 C4.64 32.55, 1.59 28.56, 0.43 24.69 C-0.74 20.82, -0.43 15.27, 1.19 11.5 C2.81 7.73, 6.29 3.87, 10.16 2.07 C14.02 0.26, 21.85 0.71, 24.37 0.65 C26.9 0.59, 25.39 1.4, 25.32 1.71 M21.32 0.87 C25.17 1.39, 29.98 4.22, 32.65 7.11 C35.32 10, 37.05 14.29, 37.33 18.19 C37.62 22.09, 36.7 27.25, 34.37 30.53 C32.05 33.8, 27.41 36.94, 23.37 37.84 C19.33 38.74, 13.85 37.98, 10.12 35.93 C6.4 33.87, 2.58 29.43, 1.01 25.5 C-0.56 21.56, -0.56 16, 0.7 12.32 C1.96 8.64, 4.99 5.42, 8.57 3.42 C12.14 1.43, 20.04 0.93, 22.16 0.35 C24.29 -0.23, 21.45 -0.44, 21.31 -0.08" stroke="none" stroke-width="0" fill="#a5d8ff"></path><path d="M23.16 0.17 C26.95 0.86, 31.44 4.47, 33.82 7.75 C36.21 11.03, 37.58 15.77, 37.47 19.84 C37.37 23.92, 36.01 29.14, 33.21 32.19 C30.41 35.24, 24.82 37.66, 20.65 38.17 C16.48 38.69, 11.58 37.52, 8.18 35.29 C4.79 33.05, 1.46 28.69, 0.29 24.76 C-0.87 20.84, -0.43 15.48, 1.2 11.74 C2.84 8.01, 6.24 4.17, 10.07 2.37 C13.91 0.57, 21.71 1.19, 24.21 0.96 C26.7 0.73, 25.12 0.81, 25.03 0.99 M21.72 0.67 C25.4 0.96, 30.27 3.33, 33.1 6.23 C35.94 9.14, 38.52 13.92, 38.7 18.07 C38.88 22.23, 36.76 27.85, 34.17 31.16 C31.58 34.47, 27.29 37.11, 23.17 37.92 C19.04 38.73, 13.02 38.14, 9.43 36 C5.84 33.86, 3.1 28.92, 1.62 25.06 C0.14 21.21, -0.7 16.64, 0.56 12.89 C1.81 9.14, 5.51 4.6, 9.15 2.57 C12.79 0.55, 20.24 1.14, 22.4 0.77 C24.56 0.39, 22.11 0, 22.12 0.3" stroke="#000000" stroke-width="1" fill="none"></path></g><g stroke-linecap="round"><g transform="translate(22.82371446672687 19.96348481378118) rotate(0 8.548721827448105 8.565911433744304)" fill-rule="evenodd"><path d="M-0.29 0.76 L2.69 17.87 L17.44 9.61 L-0.37 -0.97" stroke="none" stroke-width="0" fill="#a5d8ff" fill-rule="evenodd"></path><path d="M0 0 C-0.18 4, 0.34 7.67, 1.77 17.13 M0 0 C0.07 3.92, 0.81 6.66, 1.77 17.13 M1.77 17.13 C6.46 14.81, 12.13 11.78, 17.13 8.91 M1.77 17.13 C5.1 15.79, 7.78 13.84, 17.13 8.91 M17.13 8.91 C13.88 6.72, 10.72 5, 0 0 M17.13 8.91 C13.13 6.69, 8.99 4.56, 0 0 M0 0 C0 0, 0 0, 0 0 M0 0 C0 0, 0 0, 0 0" stroke="#000000" stroke-width="1" fill="none"></path></g></g><mask></mask></svg>